<svg width="150" height="87" viewBox="0 0 150 87" fill="none" xmlns="http://www.w3.org/2000/svg">
<path d="M26.9212 13.1321C29.4481 13.1321 31.2609 13.7011 32.3596 14.8392C33.4581 15.9774 34.0076 17.6626 34.0076 19.8951V22.3245C34.0076 24.557 33.4581 26.2423 32.3596 27.3804C31.2609 28.5184 29.4481 29.0876 26.9212 29.0876H13.2758V35.3909C13.2758 35.8724 13.0341 36.1132 12.5507 36.1132H8.99099C8.4856 36.1132 8.23291 35.8724 8.23291 35.3909V14.117C8.23291 13.4604 8.56251 13.1321 9.22171 13.1321H26.9212ZM13.2758 24.754H25.8994C27.0201 24.754 27.8111 24.5132 28.2726 24.0317C28.734 23.5502 28.9647 22.817 28.9647 21.8321V20.5845C28.9647 19.5996 28.734 18.8664 28.2726 18.3849C27.8111 17.9035 27.0201 17.6626 25.8994 17.6626H13.7043C13.4186 17.6626 13.2758 17.794 13.2758 18.0566V24.754ZM55.9543 13.1321C58.4811 13.1321 60.2939 13.7011 61.3926 14.8392C62.4912 15.9774 63.0406 17.6626 63.0406 19.8951V21.7664C63.0406 23.6487 62.656 25.1369 61.887 26.2313C61.1179 27.3257 59.8654 28.026 58.1296 28.3325L63.7658 35.2925C63.8755 35.4019 63.9085 35.5661 63.8646 35.7849C63.8206 36.0037 63.6448 36.1132 63.3373 36.1132H59.0854C58.7997 36.1132 58.6019 36.0804 58.4922 36.0147C58.3822 35.9491 58.2723 35.8396 58.1626 35.6864L52.9549 28.8577H42.3089V35.3909C42.3089 35.8724 42.0671 36.1132 41.5837 36.1132H38.0241C37.5186 36.1132 37.266 35.8724 37.266 35.3909V14.117C37.266 13.4604 37.5956 13.1321 38.2548 13.1321H55.9543ZM42.3089 24.8525H54.9325C56.0531 24.8525 56.8442 24.6116 57.3056 24.1302C57.767 23.6487 57.9978 22.9155 57.9978 21.9306V20.5517C57.9978 19.5668 57.767 18.8335 57.3056 18.3521C56.8442 17.8706 56.0531 17.6298 54.9325 17.6298H42.7373C42.4516 17.6298 42.3089 17.7611 42.3089 18.0238V24.8525ZM71.4213 13.1321C71.9049 13.1321 72.1465 13.3728 72.1465 13.8543V35.3909C72.1465 35.8724 71.9049 36.1132 71.4213 36.1132H67.8617C67.3564 36.1132 67.1036 35.8724 67.1036 35.3909V13.8543C67.1036 13.3728 67.3564 13.1321 67.8617 13.1321H71.4213ZM83.0606 13.1321C83.544 13.1321 83.9616 13.1649 84.3131 13.2306C84.6646 13.2962 84.9723 13.4276 85.236 13.6245C85.4997 13.7996 85.7304 14.0513 85.9282 14.3796C86.1478 14.686 86.3677 15.1019 86.5873 15.6272L93.443 31.3857C93.5308 31.5826 93.6848 31.6811 93.9044 31.6811H94.3C94.5196 31.6811 94.6736 31.5826 94.7614 31.3857L101.617 15.6272C101.837 15.1019 102.046 14.686 102.243 14.3796C102.463 14.0513 102.705 13.7996 102.968 13.6245C103.232 13.4276 103.529 13.2962 103.858 13.2306C104.21 13.1649 104.627 13.1321 105.111 13.1321H108.638C109.78 13.1321 110.549 13.3947 110.945 13.92C111.34 14.4234 111.538 15.2989 111.538 16.5464V35.3909C111.538 35.8724 111.285 36.1132 110.78 36.1132H107.418C106.935 36.1132 106.693 35.8724 106.693 35.3909V18.2536C106.693 18.0348 106.605 17.9253 106.429 17.9253H106.133C105.913 17.9253 105.77 18.0128 105.704 18.1879L99.0462 32.8959C98.7825 33.4868 98.5078 33.9902 98.2222 34.406C97.9585 34.8 97.6619 35.1283 97.3323 35.3909C97.0246 35.6536 96.662 35.8396 96.2446 35.9491C95.8491 36.0585 95.3766 36.1132 94.8273 36.1132H93.2452C92.696 36.1132 92.2124 36.0585 91.795 35.9491C91.3995 35.8396 91.0369 35.6536 90.7073 35.3909C90.3997 35.1283 90.103 34.8 89.8174 34.406C89.5537 33.9902 89.2901 33.4868 89.0264 32.8959L82.3685 18.1879C82.3026 18.0128 82.1597 17.9253 81.94 17.9253H81.6434C81.4675 17.9253 81.3797 18.0348 81.3797 18.2536V35.3909C81.3797 35.8724 81.1379 36.1132 80.6546 36.1132H77.2927C76.7872 36.1132 76.5346 35.8724 76.5346 35.3909V16.5464C76.5346 15.2989 76.7323 14.4234 77.1279 13.92C77.5234 13.3947 78.3034 13.1321 79.468 13.1321H83.0606ZM139.367 13.1321C139.873 13.1321 140.125 13.3728 140.125 13.8543V16.9732C140.125 17.4547 139.873 17.6955 139.367 17.6955H124.964C124.107 17.6955 123.393 17.7721 122.821 17.9253C122.272 18.0566 121.821 18.2974 121.47 18.6476C121.14 18.9759 120.91 19.4355 120.778 20.0264C120.646 20.5955 120.58 21.3068 120.58 22.1604V22.4887H139.202C139.686 22.4887 139.927 22.7295 139.927 23.2109V25.8045C139.927 26.286 139.686 26.5268 139.202 26.5268H120.58V27.0849C120.58 27.9385 120.646 28.6608 120.778 29.2517C120.91 29.8208 121.14 30.2804 121.47 30.6306C121.821 30.9589 122.272 31.1997 122.821 31.3528C123.393 31.4842 124.107 31.5498 124.964 31.5498H139.367C139.873 31.5498 140.125 31.7906 140.125 32.2721V35.3909C140.125 35.8724 139.873 36.1132 139.367 36.1132H124.865C123.195 36.1132 121.778 35.9601 120.613 35.6536C119.448 35.3471 118.493 34.8547 117.745 34.1762C117.02 33.4758 116.482 32.5786 116.13 31.4842C115.801 30.3679 115.636 29.0219 115.636 27.446V21.7992C115.636 20.2234 115.801 18.8884 116.13 17.794C116.482 16.6996 117.02 15.8132 117.745 15.1347C118.493 14.4343 119.448 13.931 120.613 13.6245C121.778 13.2962 123.195 13.1321 124.865 13.1321H139.367ZM63.4106 42.6792C63.916 42.6792 64.1687 42.9201 64.1687 43.4015V46.6189C64.1687 47.1223 63.916 47.374 63.4106 47.374H53.0612V64.9381C53.0612 65.4196 52.8194 65.6604 52.3361 65.6604H48.7435C48.2601 65.6604 48.0183 65.4196 48.0183 64.9381V47.374H37.6689C37.1635 47.374 36.9109 47.1223 36.9109 46.6189V43.4015C36.9109 42.9201 37.1635 42.6792 37.6689 42.6792H63.4106ZM71.4213 42.6792C71.9049 42.6792 72.1465 42.9201 72.1465 43.4015V64.9381C72.1465 65.4196 71.9049 65.6604 71.4213 65.6604H67.8617C67.3564 65.6604 67.1036 65.4196 67.1036 64.9381V43.4015C67.1036 42.9201 67.3564 42.6792 67.8617 42.6792H71.4213ZM83.0606 42.6792C83.544 42.6792 83.9616 42.7121 84.3131 42.7777C84.6646 42.8434 84.9723 42.9747 85.236 43.1717C85.4997 43.3468 85.7304 43.5985 85.9282 43.9268C86.1478 44.2333 86.3677 44.6491 86.5873 45.1743L93.443 60.9328C93.5308 61.1298 93.6848 61.2283 93.9044 61.2283H94.3C94.5196 61.2283 94.6736 61.1298 94.7614 60.9328L101.617 45.1743C101.837 44.6491 102.046 44.2333 102.243 43.9268C102.463 43.5985 102.705 43.3468 102.968 43.1717C103.232 42.9747 103.529 42.8434 103.858 42.7777C104.21 42.7121 104.627 42.6792 105.111 42.6792H108.638C109.78 42.6792 110.549 42.9419 110.945 43.4672C111.34 43.9706 111.538 44.846 111.538 46.0936V64.9381C111.538 65.4196 111.285 65.6604 110.78 65.6604H107.418C106.935 65.6604 106.693 65.4196 106.693 64.9381V47.8008C106.693 47.5819 106.605 47.4725 106.429 47.4725H106.133C105.913 47.4725 105.77 47.5599 105.704 47.7351L99.0462 62.443C98.7825 63.034 98.5078 63.5374 98.2222 63.9532C97.9585 64.3472 97.6619 64.6755 97.3323 64.9381C97.0246 65.2008 96.662 65.3867 96.2446 65.4962C95.8491 65.6057 95.3766 65.6604 94.8273 65.6604H93.2452C92.696 65.6604 92.2124 65.6057 91.795 65.4962C91.3995 65.3867 91.0369 65.2008 90.7073 64.9381C90.3997 64.6755 90.103 64.3472 89.8174 63.9532C89.5537 63.5374 89.2901 63.034 89.0264 62.443L82.3685 47.7351C82.3026 47.5599 82.1597 47.4725 81.94 47.4725H81.6434C81.4675 47.4725 81.3797 47.5819 81.3797 47.8008V64.9381C81.3797 65.4196 81.1379 65.6604 80.6546 65.6604H77.2927C76.7872 65.6604 76.5346 65.4196 76.5346 64.9381V46.0936C76.5346 44.846 76.7323 43.9706 77.1279 43.4672C77.5234 42.9419 78.3034 42.6792 79.468 42.6792H83.0606ZM139.367 42.6792C139.873 42.6792 140.125 42.9201 140.125 43.4015V46.5204C140.125 47.0018 139.873 47.2426 139.367 47.2426H124.964C124.107 47.2426 123.393 47.3193 122.821 47.4725C122.272 47.6038 121.821 47.8446 121.47 48.1947C121.14 48.523 120.91 48.9826 120.778 49.5736C120.646 50.1427 120.58 50.854 120.58 51.7076V52.0359H139.202C139.686 52.0359 139.927 52.2767 139.927 52.7581V55.3517C139.927 55.8332 139.686 56.074 139.202 56.074H120.58V56.6321C120.58 57.4857 120.646 58.2079 120.778 58.7989C120.91 59.368 121.14 59.8276 121.47 60.1777C121.821 60.506 122.272 60.7468 122.821 60.9C123.393 61.0313 124.107 61.097 124.964 61.097H139.367C139.873 61.097 140.125 61.3378 140.125 61.8192V64.9381C140.125 65.4196 139.873 65.6604 139.367 65.6604H124.865C123.195 65.6604 121.778 65.5072 120.613 65.2008C119.448 64.8943 118.493 64.4018 117.745 63.7234C117.02 63.023 116.482 62.1257 116.13 61.0313C115.801 59.9151 115.636 58.5691 115.636 56.9932V51.3464C115.636 49.7706 115.801 48.4355 116.13 47.3411C116.482 46.2467 117.02 45.3603 117.745 44.6819C118.493 43.9815 119.448 43.4782 120.613 43.1717C121.778 42.8434 123.195 42.6792 124.865 42.6792H139.367Z" fill="white"/>
<path d="M30.4879 46.783H9.06396V43.5H30.4879V46.783Z" fill="white" stroke="white" stroke-linejoin="round"/>
<path d="M35.4319 55.9755H9.06396V52.6924H35.4319V55.9755Z" fill="white" stroke="white" stroke-linejoin="round"/>
<path d="M42.0239 64.8396H9.06396V61.5566H42.0239V64.8396Z" fill="white" stroke="white" stroke-linejoin="round"/>
<mask id="mask0_37_26" style="mask-type:alpha" maskUnits="userSpaceOnUse" x="8" y="0" width="142" height="66">
<path d="M149.968 0H8.23999V65.6604H149.968V0Z" fill="white"/>
<path d="M8.23999 3.28302H146.672V65.6604H8.23999V3.28302Z" fill="black"/>
</mask>
<g mask="url(#mask0_37_26)">
<path d="M146.672 3.28301H148.649C148.649 2.19512 147.764 1.3132 146.672 1.3132V3.28301ZM8.23999 5.25283H146.672V1.3132H8.23999V5.25283ZM144.694 3.28301V65.6604H148.649V3.28301H144.694Z" fill="white"/>
</g>
</svg>
